<?xml version="1.0" encoding="utf-8"?>
<!-- Generator: Adobe Illustrator 21.0.2, SVG Export Plug-In . SVG Version: 6.00 Build 0)  -->
<svg xmlns="http://www.w3.org/2000/svg" xmlns:xlink="http://www.w3.org/1999/xlink" version="1.1" id="Layer_1" x="0px" y="0px" viewBox="0 0 48 48" style="enable-background:new 0 0 48 48;" xml:space="preserve" width="48px" height="48px">
<g id="surface1">
	<path style="fill:#64B5F6;" d="M24,42c-9.9,0-18-8.1-18-18c0-9.9,8.1-18,18-18c9.9,0,18,8.1,18,18C42,33.9,33.9,42,24,42z M24,10   c-7.7,0-14,6.3-14,14s6.3,14,14,14s14-6.3,14-14S31.7,10,24,10z"/>
	<rect x="22" y="3" style="fill:#2196F3;" width="4" height="10"/>
	<rect x="22" y="35" style="fill:#2196F3;" width="4" height="10"/>
	<rect x="3" y="22" style="fill:#2196F3;" width="10" height="4"/>
	<rect x="35" y="22" style="fill:#2196F3;" width="10" height="4"/>
	<path style="fill:#CDDC39;" d="M30,24c0,3.3-2.7,6-6,6s-6-2.7-6-6s2.7-6,6-6S30,20.7,30,24z"/>
</g>
</svg>
